HIERARCHY
ROOT hips
{
  OFFSET 0 11.86390953 0.3628582958
  CHANNELS 6 Xposition Yposition Zposition Yrotation Xrotation Zrotation
  JOINT spine
  {
    OFFSET 0 0.05383551117999996 0
    CHANNELS 3 Yrotation Xrotation Zrotation
    JOINT chest
    {
      OFFSET 0 0.6394558760401424 0
      CHANNELS 3 Yrotation Xrotation Zrotation
      JOINT neck
      {
        OFFSET 0 2.720089088562982 0
        CHANNELS 3 Yrotation Xrotation Zrotation
        JOINT head
        {
          OFFSET 0 0.37880844870545777 0
          CHANNELS 3 Yrotation Xrotation Zrotation
          JOINT rightEye
          {
            OFFSET -0.42867780714 0.7547055649100001 0.7381831347
            CHANNELS 3 Yrotation Xrotation Zrotation
            End Site
            {
              OFFSET -0.42867780714 0.7547055649100001 0.7381831347
            }
          }
          JOINT leftEye
          {
            OFFSET 0.428676479 0.7547055559999993 0.7381844503
            CHANNELS 3 Yrotation Xrotation Zrotation
            End Site
            {
              OFFSET 0.428676479 0.7547055559999993 0.7381844503
            }
          }
          JOINT jaw
          {
            OFFSET -0.18933892286100001 1.5626303011000007 1.137441874206
            CHANNELS 3 Yrotation Xrotation Zrotation
            End Site
            {
              OFFSET -0.18933892286100001 1.5626303011000007 1.137441874206
            }
          }
        }
      }
      JOINT rightShoulder
      {
        OFFSET -0.6795351508 2.0665205 0
        CHANNELS 3 Yrotation Xrotation Zrotation
        JOINT rightUpperArm
        {
          OFFSET -0.7287400483531672 0 0
          CHANNELS 3 Yrotation Xrotation Zrotation
          JOINT rightLowerArm
          {
            OFFSET -1.9872982039174532 0 0
            CHANNELS 3 Yrotation Xrotation Zrotation
            JOINT rightHand
            {
              OFFSET -2.6451847532219275 0 0
              CHANNELS 3 Yrotation Xrotation Zrotation
              JOINT rightLittleProximal
              {
                OFFSET -0.8008804099999995 -0.09592044000000044 -0.26183688629999996
                CHANNELS 3 Yrotation Xrotation Zrotation
                JOINT rightLittleIntermediate
                {
                  OFFSET -0.2473955153999997 -0.02541697026000067 0.002370178700999967
                  CHANNELS 3 Yrotation Xrotation Zrotation
                  JOINT rightLittleDistal
                  {
                    OFFSET -0.163687229200001 -0.015790700860001117 -0.0004274845300000635
                    CHANNELS 3 Yrotation Xrotation Zrotation
                    End Site
                    {
                      OFFSET -0.163687229200001 -0.015790700860001117 -0.0004274845300000635
                    }
                  }
                }
              }
              JOINT rightRingProximal
              {
                OFFSET -0.8393382799999985 -0.06223833561000025 -0.09213143500000005
                CHANNELS 3 Yrotation Xrotation Zrotation
                JOINT rightRingIntermediate
                {
                  OFFSET -0.3284497260000011 -0.03264224524000103 0.009408593183000052
                  CHANNELS 3 Yrotation Xrotation Zrotation
                  JOINT rightRingDistal
                  {
                    OFFSET -0.19447660429999902 -0.021730899850000318 0.003074347969000052
                    CHANNELS 3 Yrotation Xrotation Zrotation
                    End Site
                    {
                      OFFSET -0.19447660429999902 -0.021730899850000318 0.003074347969000052
                    }
                  }
                }
              }
              JOINT rightMiddleProximal
              {
                OFFSET -0.8473005199999989 -0.06735503500000095 0.10541820299999995
                CHANNELS 3 Yrotation Xrotation Zrotation
                JOINT rightMiddleIntermediate
                {
                  OFFSET -0.3450455799999995 -0.02481901642000084 0.019012570390000032
                  CHANNELS 3 Yrotation Xrotation Zrotation
                  JOINT rightMiddleDistal
                  {
                    OFFSET -0.23542332000000088 -0.025003910029999243 0.0075583457949999905
                    CHANNELS 3 Yrotation Xrotation Zrotation
                    End Site
                    {
                      OFFSET -0.23542332000000088 -0.025003910029999243 0.0075583457949999905
                    }
                  }
                }
              }
              JOINT rightIndexProximal
              {
                OFFSET -0.8008568281999987 -0.09897839600000169 0.29462796
                CHANNELS 3 Yrotation Xrotation Zrotation
                JOINT rightIndexIntermediate
                {
                  OFFSET -0.30524754480000016 -0.024634122809999992 0.02743375304999998
                  CHANNELS 3 Yrotation Xrotation Zrotation
                  JOINT rightIndexDistal
                  {
                    OFFSET -0.23067378950000017 -0.016876459159999913 0.008484125099999983
                    CHANNELS 3 Yrotation Xrotation Zrotation
                    End Site
                    {
                      OFFSET -0.23067378950000017 -0.016876459159999913 0.008484125099999983
                    }
                  }
                }
              }
              JOINT rightThumbProximal
              {
                OFFSET -0.25574064999999935 -0.12833189930000155 0.22385698609999993
                CHANNELS 3 Yrotation Xrotation Zrotation
                JOINT rightThumbIntermediate
                {
                  OFFSET -0.22791743260000086 -0.07103586192999978 0.27385039
                  CHANNELS 3 Yrotation Xrotation Zrotation
                  JOINT rightThumbDistal
                  {
                    OFFSET -0.13610267659999975 -0.03369390969999997 0.14246511509999996
                    CHANNELS 3 Yrotation Xrotation Zrotation
                    End Site
                    {
                      OFFSET -0.13610267659999975 -0.03369390969999997 0.14246511509999996
                    }
                  }
                }
              }
            }
          }
        }
      }
      JOINT leftShoulder
      {
        OFFSET 0.6795338396 2.0665205 0
        CHANNELS 3 Yrotation Xrotation Zrotation
        JOINT leftUpperArm
        {
          OFFSET 0.7287383950230443 0 0
          CHANNELS 3 Yrotation Xrotation Zrotation
          JOINT leftLowerArm
          {
            OFFSET 1.9872997282019604 0 0
            CHANNELS 3 Yrotation Xrotation Zrotation
            JOINT leftHand
            {
              OFFSET 2.6451820781302327 0 0
              CHANNELS 3 Yrotation Xrotation Zrotation
              JOINT leftLittleProximal
              {
                OFFSET 0.8008804099999995 -0.09592306899999814 -0.2618342639000001
                CHANNELS 3 Yrotation Xrotation Zrotation
                JOINT leftLittleIntermediate
                {
                  OFFSET 0.2473981400000007 -0.02542352681000093 0.0023609995859999455
                  CHANNELS 3 Yrotation Xrotation Zrotation
                  JOINT leftLittleDistal
                  {
                    OFFSET 0.1636846068000002 -0.015794634789999318 -0.00043272972159996703
                    CHANNELS 3 Yrotation Xrotation Zrotation
                    End Site
                    {
                      OFFSET 0.1636846068000002 -0.015794634789999318 -0.00043272972159996703
                    }
                  }
                }
              }
              JOINT leftRingProximal
              {
                OFFSET 0.8393409199999996 -0.062242267999998324 -0.0921281570000001
                CHANNELS 3 Yrotation Xrotation Zrotation
                JOINT leftRingIntermediate
                {
                  OFFSET 0.3284471036000003 -0.03264224524000103 0.009405970574000042
                  CHANNELS 3 Yrotation Xrotation Zrotation
                  JOINT leftRingDistal
                  {
                    OFFSET 0.1944779099999996 -0.021732211159998904 0.003073036670000001
                    CHANNELS 3 Yrotation Xrotation Zrotation
                    End Site
                    {
                      OFFSET 0.1944779099999996 -0.021732211159998904 0.003073036670000001
                    }
                  }
                }
              }
              JOINT leftMiddleProximal
              {
                OFFSET 0.8473005200000001 -0.06736028199999788 0.1054214809999999
                CHANNELS 3 Yrotation Xrotation Zrotation
                JOINT leftMiddleIntermediate
                {
                  OFFSET 0.3450455799999995 -0.024824261000000014 0.019013225990000007
                  CHANNELS 3 Yrotation Xrotation Zrotation
                  JOINT leftMiddleDistal
                  {
                    OFFSET 0.2354259489999998 -0.025005222000000327 0.0075590014499999705
                    CHANNELS 3 Yrotation Xrotation Zrotation
                    End Site
                    {
                      OFFSET 0.2354259489999998 -0.025005222000000327 0.0075590014499999705
                    }
                  }
                }
              }
              JOINT leftIndexProximal
              {
                OFFSET 0.8008594516999996 -0.09898495199999946 0.29463124239999994
                CHANNELS 3 Yrotation Xrotation Zrotation
                JOINT leftIndexIntermediate
                {
                  OFFSET 0.30524754480000016 -0.024632811499998963 0.02743047472
                  CHANNELS 3 Yrotation Xrotation Zrotation
                  JOINT leftIndexDistal
                  {
                    OFFSET 0.23067378950000017 -0.016876459159999913 0.008481502700000004
                    CHANNELS 3 Yrotation Xrotation Zrotation
                    End Site
                    {
                      OFFSET 0.23067378950000017 -0.016876459159999913 0.008481502700000004
                    }
                  }
                }
              }
              JOINT leftThumbProximal
              {
                OFFSET 0.25574326469999953 -0.12833321050000013 0.22385764169999997
                CHANNELS 3 Yrotation Xrotation Zrotation
                JOINT leftThumbIntermediate
                {
                  OFFSET 0.22804987480000094 -0.07138466829999968 0.273648441
                  CHANNELS 3 Yrotation Xrotation Zrotation
                  JOINT leftThumbDistal
                  {
                    OFFSET 0.13614857189999907 -0.033867001519998885 0.14238119169999996
                    CHANNELS 3 Yrotation Xrotation Zrotation
                    End Site
                    {
                      OFFSET 0.13614857189999907 -0.033867001519998885 0.14238119169999996
                    }
                  }
                }
              }
            }
          }
        }
      }
    }
  }
  JOINT rightUpperLeg
  {
    OFFSET -0.9749898906000001 -1.8495733739999998 0
    CHANNELS 3 Yrotation Xrotation Zrotation
    JOINT rightLowerLeg
    {
      OFFSET 0 -4.1566544686813165 0
      CHANNELS 3 Yrotation Xrotation Zrotation
      JOINT rightFoot
      {
        OFFSET 0.14539718599999998 -4.225553926 -0.3666210900000001
        CHANNELS 3 Yrotation Xrotation Zrotation
        JOINT rightToes
        {
          OFFSET 0.1706738473 -0.9584117400000015 1.0093348617
          CHANNELS 3 Yrotation Xrotation Zrotation
          End Site
          {
            OFFSET 0.1706738473 -0.9584117400000015 1.0093348617
          }
        }
      }
    }
  }
  JOINT leftUpperLeg
  {
    OFFSET 0.9749898906000001 -1.8495733739999998 0
    CHANNELS 3 Yrotation Xrotation Zrotation
    JOINT leftLowerLeg
    {
      OFFSET 0 -4.156653488267941 0
      CHANNELS 3 Yrotation Xrotation Zrotation
      JOINT leftFoot
      {
        OFFSET -0.14537357999999995 -4.225555399999999 -0.36661124279999996
        CHANNELS 3 Yrotation Xrotation Zrotation
        JOINT leftToes
        {
          OFFSET -0.17066467000000002 -0.9584157000000019 1.0093348617
          CHANNELS 3 Yrotation Xrotation Zrotation
          End Site
          {
            OFFSET -0.17066467000000002 -0.9584157000000019 1.0093348617
          }
        }
      }
    }
  }
}
MOTION
Frames: 4
Frame Time: 0.03333333333333333
0.01647208444774151 -0.10136203701904378 0.009993338026106358 -5.281670087597653 -3.735625341642766 -3.3468283131645276 1.5811793764734718 3.294816733733445 2.8155976801451024 0.7742109242303326 2.26645741224294 3.136942971461768 -0.06480717625561351 5.625977205700141 0.44920071259337035 1.3962775476916207 -7.561393795238765 -0.2799924880816917 0 0 0 0 0 0 0 0 0 15.532817625961021 1.1590970614013352 14.830386993639546 28.797006770226318 11.307924653196856 64.73359653016978 6.693169953077544 0.00505663159087638 -0.0862626270075428 -0.45913778677955297 -20.183263830920094 6.945752130912024 -4.502763668550786 0.6434567257944174 26.4742885240814 -1.0868227409090414 0.1336230072039301 17.448534716852762 -1.178582848475035 0.13419490370671763 16.54877455409627 -2.800309959879785 -0.02140025382253636 20.487210129127256 -1.428603703671387 0.2623788187073119 20.960983983341972 -1.2185340347599665 0.19641804233485083 17.90941313212995 -2.0690354704458467 -0.14596322143625604 15.031837235124593 -1.081041783628797 0.1685849466996354 17.447894756154206 -1.2794154687555686 0.20093113030237475 18.459037205643522 1.3307158987338232 0.02969861099623253 6.807656557707587 -1.145823994850359 0.17682031128719694 17.41885266804399 -0.5602697860675271 0.03870186915255009 8.060658262312247 -0.9734416814728051 -1.4068619410897372 -4.355039305750741 -29.583369902266615 10.853407233532245 -21.78268657971779 -3.006278021945051 -15.654510414189568 -11.767526515875852 -17.598855654282787 1.0184925794020676 -12.413986636188367 -20.717722944204493 3.227232922687608 -70.88979976998228 -1.4592413342022512 0.000255231238657232 0.018852608215613402 -1.7269157764035523 -33.222591030689586 -5.2223287539572105 5.4336960559495635 0.9396822415308362 -27.113337033433815 1.5006312838511153 0.29789574723522966 -17.41852889783775 1.44127475011044 0.269047849779641 -16.518943658120296 3.375347584656567 0.08841004372121579 -21.170533476076397 1.830468498959082 0.3383114006933947 -20.924783115593286 1.5734550057307584 0.24773965723391334 -17.878957817994085 2.461895152468223 -0.10413761040361139 -15.733139114126853 1.5367633408092556 0.23470052375929906 -17.419535396734847 1.6224385566186588 0.2631711823451847 -18.427232514928793 -1.0703173389911294 -0.0032289911083892794 -7.5793946235799 1.5434473443979195 0.23635883299602242 -17.38982087691947 0.7098150541770699 0.05037881479888647 -8.047116555434826 2.8674036135340297 -0.4462804018173058 4.915289771971919 25.18170942144881 10.512352793165078 21.567844315501745 3.0257092787335957 -13.936603603028994 8.182999659305509 -10.351063294692315 0.6394167892612059 3.5333691114892 -9.886543610688168 7.247267897470605 -4.409993123031776 -1.6119525922708622 -3.6614435379290957 3.317071654977654 0.000019613850035788547 -7.2828726511056185 -0.0000028238090758956225 15.135361078109302 -10.39812698924752 7.359301097385209 2.1357060156853973 12.128345887200123 4.590646955092387 0.4241553240129721 1.28134720049876 -7.115867898174123 0.000007277344426681071 -4.928527694458791 -0.0000017575343051392746
0.016255266964435577 -0.10157661374023519 0.010659298859536648 -5.281595972241743 -3.7482608082967133 -3.345914690779443 1.581005373800644 3.2905130131806772 2.814567475604991 0.7739676557375921 2.2491482281922277 3.1367588764931984 -0.06494235670941637 5.625979350465478 0.43875052805565834 1.4145994665837525 -7.508896982800482 -0.3008717348696632 0 0 0 0 0 0 0 0 0 15.525943455943812 1.1657392932065047 14.812381574078811 28.808098495660104 11.315880997272767 64.74362077020386 6.680413581825135 0.005024344522817583 -0.08608671648459482 -0.4614529187067808 -20.183191060492145 6.952715854486231 -4.500239748331623 0.6417396256380908 26.43081792148626 -1.079483243216367 0.1316644185303356 17.33764979425279 -1.1712176413425603 0.1322110085358966 16.437576868449025 -2.791481645311915 -0.024926429316709447 20.49961223108083 -1.427064003837143 0.26177591480380297 20.93680569163892 -1.2169630652739236 0.1959048813453144 17.88522597323746 -2.0879371550588854 -0.14153370975570953 15.058237704256628 -1.0813136210351824 0.16866188004246743 17.452097473973065 -1.2796867351845587 0.2010267135181554 18.46310809497504 1.3259274632442615 0.027447197938280363 6.846881990091143 -1.141846933429459 0.1755837076944841 17.358008341675987 -0.5561445742787452 0.03811147787341681 7.999837476406496 -0.9548707988279294 -1.3735427947543566 -4.327380748159077 -29.583010005248777 10.84737940187453 -21.798887364046376 -3.0126006429218433 -15.6533577551721 -11.767163108678691 -17.597252572864367 1.0228459148988511 -12.387609394232928 -20.69861216301801 3.2470905133042773 -70.92900343338175 -1.446995556704117 0.00022633701424935195 0.018696299277223088 -1.7114478986769441 -33.213993995220605 -5.253759153800754 5.421962432557863 0.9330891612942864 -27.074519580950554 1.4921265887849635 0.29483599499778707 -17.317709120942595 1.4327325871617502 0.2661543793335064 -16.418117029067034 3.380407021683497 0.08954737164109884 -21.22040404962735 1.8324682757141038 0.3390886417764901 -20.948591825353585 1.575468951321873 0.24839087918618055 -17.902719022746286 2.4572367983949817 -0.10472320671614548 -15.70385578009635 1.5365219446247202 0.23460754169334389 -17.416698464871462 1.6221981197651218 0.2631020526312248 -18.424424621242114 -1.1056374265338118 -0.007092724584350301 -7.571285583661939 1.5429378956304778 0.2361776179988671 -17.3838601663101 0.709264327604136 0.05030685432593247 -8.040950383503283 2.865515724991226 -0.4969290657801877 4.948567305097864 25.18207660063947 10.516409743342368 21.55533035958751 3.0194897732025097 -13.937330210448977 8.16830866594853 -10.350158822091535 0.6437392893369576 3.527193647542135 -9.89013735957679 7.271738546582 -4.414563642856737 -1.6116950878687712 -3.6775719448919597 3.323432197358089 0.000004317308302441739 -7.2828752332583875 -0.000002624960993300483 15.13460074878298 -10.390057896240577 7.361457369444681 2.1359129602172864 12.146386415388319 4.596028567184969 0.424205079291405 1.2683129337795958 -7.1159882736893145 6.129794150973285e-7 -4.932860407678367 -0.000001228640224005467
0.015661198645830154 -0.102494048432618 0.01264320407062769 -5.281490067334284 -3.7764217527134796 -3.342262274913346 1.5805452830238498 3.278336770180263 2.8105772884078357 0.7733045982550129 2.2018540486024083 3.1362566273653805 -0.06522574035361667 5.625980208371615 0.4169187420347648 1.4536002919505773 -7.395666738303215 -0.34214660683185044 0 0 0 0 0 0 0 0 0 15.510078412076048 1.178567151813001 14.743653852453281 28.819233235502743 11.317931502598883 64.78324810279699 6.650446975267054 0.004986595054306646 -0.08572651778919832 -0.4710219689648804 -20.178302784782613 6.983802528758188 -4.503155706309517 0.642257258405636 26.334052229418255 -1.0749896925514981 0.13045497829525285 17.26981139921755 -1.166735687037713 0.13100761140675327 16.369920305243987 -2.7719938628174714 -0.031758560327699116 20.476164618671916 -1.4264596080944947 0.26154926221758246 20.92757137521996 -1.2163573692559322 0.1957014285654254 17.87592334164494 -2.101144212773108 -0.13864385074771915 15.087527180978913 -1.0836651940753461 0.1693812141498287 17.488007727997683 -1.282009655066682 0.20178912475454677 18.498915076730526 1.3354310907680442 0.024615250471415384 6.871473371629906 -1.1408137659967719 0.1752649551457164 17.342223056317795 -0.5550767742326589 0.037965139037167486 7.984055629145706 -0.9049190152864067 -1.3343397964510166 -4.301932384679728 -29.582860961443664 10.844670655260705 -21.806199279820923 -3.019532736161782 -15.652100477591405 -11.766756884174459 -17.59225779641048 1.0340870155717266 -12.310535756030397 -20.652991202410963 3.2735236535934495 -71.02731523512291 -1.4211773760428459 0.00021386467048406757 0.0183420399258305 -1.6639414729176327 -33.21846794055473 -5.341549015832662 5.411499211289434 0.9270353220105579 -27.029981989785224 1.4799975143182302 0.29051877886802907 -17.173896795898393 1.4205167476394025 0.26203813277446764 -16.274312474914645 3.4121229542182294 0.099096696082812 -21.38847149128178 1.8377994077693491 0.34111337496858296 -21.012489482992834 1.5808517819665857 0.2501467880288297 -17.965839523904194 2.4441860002823 -0.10750416569505228 -15.667938267606146 1.5344489003403432 0.23396291052078239 -17.392477092790244 1.6201531364803154 0.26241651854523074 -18.40026215664878 -1.1579556385298553 -0.010127069508275983 -7.5290452647568555 1.5418285154843847 0.235853101218786 -17.37083799892387 0.7080855604576236 0.05013129038237843 -8.027645452568622 2.8360108947426568 -0.5776520641272127 4.982165047814125 25.182907246568544 10.52556673297202 21.52717762265086 3.009578712578359 -13.939107153483464 8.155394570322528 -10.346759399980419 0.6313479187150857 3.5112333883514664 -9.901179628436369 7.373883876181664 -4.4332528338015535 -1.6102876598588023 -3.7396752934569033 3.343482800194086 0.000019711931073290883 -7.2828752332583875 -0.000003684455856246592 15.133020015795358 -10.38961260920264 7.361388125955191 2.1369695388757792 12.226326856278313 4.610354847020994 0.42444842117612464 1.220680977649654 -7.1164011075962295 0.000010753918532409835 -4.943605761378155 -0.000003948921061142246
0.014861349947750568 -0.10352973874023519 0.015217248350381851 -5.2849507108370375 -3.805945821576195 -3.3355851693541885 1.5800333580600727 3.2626581487211244 2.8064424093766034 0.7724788946846124 2.1429156062020076 3.1356302197634562 -0.059461972834727685 5.605159198626844 0.3949010661717198 1.4847066962843805 -7.308505554487754 -0.3691880596682997 0 0 0 0 0 0 0 0 0 15.481023562293936 1.1982438232562753 14.63612481087317 28.818974767883418 11.291618233759213 64.84630546044548 6.618069071930603 0.0049401144162111174 -0.08528905265590293 -0.48170647830946184 -20.14460386581401 7.033110889759496 -4.489079085719936 0.6337442338465057 26.177817123485365 -1.0675767852663585 0.12848719843935244 17.157857847873984 -1.1593119032196344 0.12903102694481774 16.257707448175513 -2.740363596800263 -0.042399870566184786 20.412354110780047 -1.4291247964500553 0.2625810584619504 20.96912191288621 -1.2190642225894688 0.19659031886160586 17.917442897051966 -2.0715564042203147 -0.14358738857765027 14.956071589940315 -1.083529829978528 0.16934835706111237 17.48602035145948 -1.2818912531783475 0.20175421320006498 18.49709967089685 1.3679876147805792 0.02587264406347333 6.801281014469895 -1.144842043755759 0.17652278309724723 17.403841132283727 -0.5592524096323296 0.03855050772387654 8.045663317062496 -0.892522676371493 -1.375304956932162 -4.348941188233474 -29.583605137141916 10.857886024215764 -21.770638963061764 -3.006734653688132 -15.654441254465274 -11.767503947433989 -17.585607937751945 1.0497821838155827 -12.206155403750527 -20.603864567653556 3.2810887210947635 -71.14021492410997 -1.3981173437500214 0.00021541018108511313 0.018062025526803697 -1.6107343152220306 -33.2483504563601 -5.443660656669956 5.404953800505308 0.9237947216187838 -27.03675615067694 1.4740025664501117 0.2883974177703192 -17.10294427523854 1.4144996978000353 0.26002720816379926 -16.203328992519815 3.4358404912998526 0.10643769383047888 -21.509959101522607 1.842336373217067 0.3428579057272587 -21.06678300826374 1.5854090757236143 0.25161726714882754 -18.019516065631894 2.445818566562324 -0.10739785734893609 -15.681876555974055 1.5366477102170808 0.2346649317718561 -17.4182252129471 1.622327299316374 0.2631378047796549 -18.425995422015763 -1.1436060652042008 -0.005966083956283164 -7.516072904657843 1.5427231556289165 0.2361383440775337 -17.381367743146892 0.7090219388127794 0.05025990676246903 -8.038245401202438 2.8001590529244886 -0.59821153578907 4.96461724312254 25.18262410359729 10.522522188287397 21.53657925688955 3.0111267761201894 -13.938425403919963 8.149750493223289 -10.347382059414615 0.615761090896598 3.4922666099914634 -9.901183256411967 7.493082095530811 -4.4492749323239655 -1.6187384343482774 -3.814055812212702 3.3613225211269175 0.000002692939620118872 -7.282878676128769 -0.0000017444750231090798 15.134303273166346 -10.391916303769918 7.360122873062254 2.1361258760795785 12.321101949248234 4.622934204729695 0.4246650635304754 1.1653150933819783 -7.1172609236929025 0.000004841130842589115 -4.955512492158446 -0.0000021582965584859713
